<svg xmlns="http://www.w3.org/2000/svg" viewBox="0 0 512 640" x="0px" y="0px"><title>Dead-Emoji-Emotion-Face-Expression-Feeling_2</title><path d="M367.26,159.82H144.74a25.15,25.15,0,0,0-25.12,25.12V347.13a25.15,25.15,0,0,0,25.12,25.12H367.26a25.15,25.15,0,0,0,25.12-25.12V184.94A25.15,25.15,0,0,0,367.26,159.82Zm5.12,187.31a5.13,5.13,0,0,1-5.12,5.12H144.74a5.13,5.13,0,0,1-5.12-5.12V184.94a5.13,5.13,0,0,1,5.12-5.12H367.26a5.13,5.13,0,0,1,5.12,5.12Z"/><circle cx="256" cy="426.79" r="18.78"/><circle cx="194.42" cy="418.01" r="18.78"/><circle cx="317.57" cy="418.01" r="18.78"/><path d="M403.45,119.42c-19.37-23.91-41.9-42.69-67-55.82A176.7,176.7,0,0,0,286,46a32.4,32.4,0,1,0-60,0A176.7,176.7,0,0,0,175.53,63.6c-25.08,13.13-47.61,31.91-67,55.82C68.14,169.33,45.88,236.78,45.88,309.33c0,53.37,22.59,104,63.6,142.54,39.71,37.33,93.11,58.74,146.52,58.74s106.81-21.41,146.52-58.74c41-38.55,63.6-89.17,63.6-142.54C466.12,236.78,443.86,169.33,403.45,119.42ZM248.27,43.49a12.4,12.4,0,1,1,15.46,0l-1.09,0-2.2-.08c-1.5,0-3-.07-4.44-.07s-2.94,0-4.44.07l-2.2.08ZM388.83,437.3c-36.05,33.88-84.46,53.31-132.83,53.31s-96.78-19.43-132.83-53.31c-36.94-34.73-57.29-80.18-57.29-128,0-68,20.67-131,58.22-177.32,17.63-21.78,38.06-38.83,60.7-50.7a153.86,153.86,0,0,1,61.47-17.68h0c3.28-.22,6.54-.33,9.69-.33s6.41.11,9.69.33h.07A153.89,153.89,0,0,1,327.2,81.31c22.64,11.87,43.07,28.92,60.7,50.7,37.55,46.36,58.22,109.33,58.22,177.32C446.12,357.12,425.77,402.57,388.83,437.3Z"/><path d="M349.43,224.12a10,10,0,0,0-14.14,0l-6.38,6.38-6.38-6.38a10,10,0,0,0-14.15,14.14l6.39,6.38L308.38,251a10,10,0,0,0,14.15,14.15l6.38-6.39,6.38,6.39A10,10,0,1,0,349.43,251l-6.38-6.38,6.38-6.38A10,10,0,0,0,349.43,224.12Z"/><path d="M189.47,265.17A10,10,0,1,0,203.62,251l-6.39-6.38,6.39-6.38a10,10,0,1,0-14.15-14.14l-6.38,6.38-6.38-6.38a10,10,0,1,0-14.14,14.14l6.38,6.38L162.57,251a10,10,0,0,0,14.14,14.15l6.38-6.39Z"/><path d="M309.42,291.82c-8.7,0-16.72,5.2-22,14.28-1.74,3-3.62,4.33-4.71,4.33s-3-1.34-4.71-4.33c-5.28-9.08-13.3-14.28-22-14.28s-16.72,5.2-22,14.28c-1.74,3-3.62,4.33-4.71,4.33s-3-1.34-4.71-4.33c-5.28-9.08-13.3-14.28-22-14.28s-16.72,5.2-22,14.28a10,10,0,0,0,17.29,10c1.74-3,3.62-4.33,4.71-4.33s3,1.34,4.71,4.33c5.28,9.08,13.3,14.28,22,14.28s16.72-5.2,22-14.28c1.74-3,3.62-4.33,4.71-4.33s3,1.34,4.71,4.33c5.28,9.08,13.3,14.28,22,14.28s16.72-5.2,22-14.28c1.74-3,3.62-4.33,4.71-4.33s3,1.34,4.71,4.33a10,10,0,1,0,17.29-10C326.14,297,318.12,291.82,309.42,291.82Z"/><text x="0" y="527" fill="#000000" font-size="5px" font-weight="bold" font-family="'Helvetica Neue', Helvetica, Arial-Unicode, Arial, Sans-serif">Created by AomAm</text><text x="0" y="532" fill="#000000" font-size="5px" font-weight="bold" font-family="'Helvetica Neue', Helvetica, Arial-Unicode, Arial, Sans-serif">from the Noun Project</text></svg>